# xmcd CD database file
#
# Track frame offsets:
#	150
#	18782
#	28127
#	38952
#	56737
#	67920
#	83385
#	102185
#	112615
#	124657
#	144952
#	157927
#
# Disc length: 2579 seconds
#
# Revision: 0
# Processed by: cddbd v1.5.1PL0 Copyright (c) Steve Scherf et al.
# Submitted via: CDex 1.50beta9
#
DISCID=840a110c
DTITLE=SEAN WILSON - WORKING MAN
DYEAR=1900
DGENRE=Country
TTITLE0=Working Man
TTITLE1=Same Sweet Girl
TTITLE2=Just Someone I Used To Know
TTITLE3=In An Irish Country Home
TTITLE4=Mama Tried
TTITLE5=Erne's Lovely Shore
TTITLE6=John Williams
TTITLE7=Everybody's Somebody Fool
TTITLE8=I Wouldn't Change You If I Could
TTITLE9=Macushla
TTITLE10=Too Old To Die Young
TTITLE11=Old Threshing Mill
EXTD=
EXTT0=
EXTT1=
EXTT2=
EXTT3=
EXTT4=
EXTT5=
EXTT6=
EXTT7=
EXTT8=
EXTT9=
EXTT10=
EXTT11=
PLAYORDER=
